<svg xmlns="http://www.w3.org/2000/svg" xml:space="preserve" style="fill-rule:evenodd;clip-rule:evenodd;stroke-linejoin:round;stroke-miterlimit:1.41421" viewBox="0 0 4417 3259"><path d="M525.403 293.05c-131.633 0-251.228 15.825-339.77 41.615v220.298c88.542 25.79 208.137 41.614 339.77 41.614 150.657 0 285.535-20.729 376.134-53.402V346.457c-90.599-32.676-225.477-53.407-376.134-53.407" style="fill:#8f1e1c;fill-rule:nonzero" transform="scale(4.16667)"/><path d="M907.423 492.442c-3.857-10.663-4.629-24.154-1.361-37.162 5.85-23.289 22.421-36.198 37.013-28.833 3.618 1.827 6.774 4.731 9.387 8.418.239-.001.478 0 .715.016 0 0 44.552 53.106 3.313 116.003-.895 3.569-76.534 91.718-94.043 94.524-11.46 1.836 14.891-89.998 44.976-152.966M176.479 482.021c5.3-9.63 7.158-22.788 4.217-36.425-5.266-24.416-23.91-41.11-41.642-37.285-4.398.948-8.325 3.072-11.666 6.098a14 14 0 0 0-.845-.153s-56.292 41.952-12.057 113.924c.805 3.741 83.851 108.838 104.311 115.763 13.391 4.532-11.247-92.525-42.318-161.922" style="fill:#8f1e1c;fill-rule:nonzero" transform="scale(4.16667)"/><path d="m97.467 488.066.007.015c.185.145.357.276-.007-.015" style="fill:#e33a25;fill-rule:nonzero" transform="scale(4.16667)"/><path d="M993.119 412.903c-.88-3.064-1.756-6.126-2.662-9.162l30.683-44.451c3.13-4.522 3.77-10.398 1.73-15.555-2.04-5.13-6.49-8.81-11.76-9.71l-51.886-8.805c-2.008-4.102-4.116-8.142-6.23-12.15l21.797-49.903c2.243-5.087 1.769-10.995-1.203-15.608-2.961-4.636-7.99-7.344-13.349-7.133l-52.656 1.913a435 435 0 0 0-8.322-10.521l12.101-53.49c1.225-5.433-.322-11.118-4.103-15.064-3.762-3.932-9.229-5.559-14.426-4.283l-51.289 12.608a444 444 0 0 0-10.114-8.673l1.848-54.914c.198-5.559-2.393-10.841-6.844-13.925-4.446-3.104-10.093-3.573-14.956-1.266l-47.847 22.747c-3.854-2.21-7.728-4.4-11.644-6.517l-8.455-54.115c-.857-5.482-4.385-10.138-9.326-12.265-4.923-2.138-10.568-1.448-14.891 1.808l-42.659 32.007a439 439 0 0 0-12.692-4.011l-18.386-51.317c-1.87-5.229-6.181-9.071-11.438-10.151-5.239-1.071-10.63.743-14.263 4.802L583.97 55.971c-4.342-.5-8.685-.956-13.043-1.332L543.204 7.926c-2.81-4.732-7.77-7.612-13.116-7.612-5.334 0-10.304 2.88-13.09 7.612l-27.733 46.713c-4.358.376-8.722.832-13.056 1.332l-35.91-40.172c-3.636-4.059-9.047-5.873-14.268-4.802-5.255 1.092-9.573 4.922-11.433 10.151l-18.402 51.317a509 509 0 0 0-12.691 4.011l-42.644-32.007c-4.336-3.266-9.98-3.955-14.916-1.808-4.919 2.127-8.461 6.783-9.313 12.265l-8.461 54.115a508 508 0 0 0-11.653 6.517l-47.842-22.747c-4.858-2.315-10.529-1.838-14.954 1.266-4.445 3.084-7.042 8.366-6.84 13.925l1.835 54.914a511 511 0 0 0-10.112 8.673l-51.279-12.608c-5.211-1.265-10.67.351-14.441 4.283-3.795 3.946-5.332 9.631-4.113 15.064l12.079 53.49a510 510 0 0 0-8.293 10.521l-52.655-1.913c-5.315-.157-10.387 2.497-13.356 7.133-2.975 4.613-3.425 10.521-1.211 15.608l21.814 49.903c-2.119 4.008-4.224 8.048-6.249 12.15l-51.883 8.805c-5.271.888-9.714 4.566-11.764 9.71-2.037 5.157-1.376 11.033 1.735 15.555l30.69 44.451c-.237.784-.455 1.576-.69 2.364l-16.863 17.912 45.341 64.049s435.152 200.732 838.797 3.396c46.108-8.273 56.855-78.559 56.855-78.559" style="fill:#e43a25;fill-rule:nonzero" transform="scale(4.16667)"/><path d="M608.303 376.759s48.157-52.729 96.315 0c0 0 37.84 70.312 0 105.463 0 0-61.917 49.217-96.315 0 0 0-41.279-38.672 0-105.463" style="fill:#030404;fill-rule:nonzero" transform="scale(4.16667)"/><path d="M664.057 396.32c0 20.533-12.103 37.179-27.03 37.179-14.924 0-27.027-16.646-27.027-37.179 0-20.532 12.103-37.18 27.027-37.18 14.927 0 27.03 16.648 27.03 37.18" style="fill:#fff;fill-rule:nonzero" transform="scale(4.16667)"/><path d="M393.365 362.361s82.608-36.576 105.154 45.062c0 0 23.618 95.154-67.837 100.525 0 0-116.622-22.462-37.317-145.587" style="fill:#030404;fill-rule:nonzero" transform="scale(4.16667)"/><path d="M434.855 397.668c0 21.173-12.48 38.346-27.877 38.346-15.391 0-27.874-17.173-27.874-38.346 0-21.178 12.483-38.346 27.874-38.346 15.397 0 27.877 17.168 27.877 38.346" style="fill:#fff;fill-rule:nonzero" transform="scale(4.16667)"/><path d="M111.602 499.216c10.967-12.463 37.611-27.557 35.57-46.282-3.653-33.527-31.456-57.999-62.099-54.659-7.6.828-14.658 3.292-20.924 7.036a28 28 0 0 0-1.388-.294S-40.87 455.89 18.197 557.674c.557 5.137 117.848 155.668 150.788 167.131 21.559 7.502-19.911-128.64-57.383-225.589M953.549 494.673c-12.693-10.7-46.162-20.418-46.92-39.238-1.356-33.698 22.512-62.021 53.312-63.26 7.638-.308 14.984 1.083 21.735 3.857.442-.174.884-.346 1.329-.497 0 0 110.025 34.951 66.695 144.366.21 5.163-93.468 171.416-124.345 187.635-20.209 10.615 5.506-131.431 28.194-232.863M191.142 495.558s-1.383 137.296 133.166 167.932l28.054-56.363s-97.495 9.431-104.995-111.569zM876.362 495.558s1.382 137.296-133.167 167.932l-28.054-56.363s97.495 9.431 104.995-111.569z" style="fill:#e43a25;fill-rule:nonzero" transform="scale(4.16667)"/><path d="M779.167 635.591c-20.25-48.942-85.595-68.373-145.951-43.4-53.126 21.981-84.637 71.032-77.624 115.845 41.946-.652 86.94-3.371 130.736-9.718 0 0-25.837 41.763-63.857 78.211 25.566 6.599 55.383 4.768 84.076-7.104 60.357-24.973 92.87-84.893 72.62-133.834M404.746 695.984s55.203 7.295 130.67 9.156c6.61-47.511-29.38-97.792-86.801-117.243-63.438-21.488-128.989 2.792-146.414 54.232s19.876 110.56 83.314 132.049c28.121 9.526 56.653 10.049 81.229 3.207-36.911-36.505-61.998-81.401-61.998-81.401" style="fill:#e43a25;fill-rule:nonzero" transform="scale(4.16667)"/></svg>