<svg xmlns="http://www.w3.org/2000/svg" width="100" height="100" fill="currentColor" viewBox="0 0 24 24"><path d="M10.17 13.83a1.264 1.264 0 0 1 0 1.844 1.31 1.31 0 0 1-1.844 0 6.496 6.496 0 0 1 0-9.179l4.596-4.596a6.496 6.496 0 0 1 9.18 0 6.496 6.496 0 0 1 0 9.18l-1.935 1.934a9 9 0 0 0-.52-3.142l.61-.624a3.87 3.87 0 0 0 0-5.505 3.87 3.87 0 0 0-5.504 0l-4.584 4.584a3.87 3.87 0 0 0 0 5.505m3.662-5.505a1.31 1.31 0 0 1 1.843 0 6.496 6.496 0 0 1 0 9.179l-4.596 4.596a6.496 6.496 0 0 1-9.18 0 6.496 6.496 0 0 1 0-9.18l1.935-1.934a9.1 9.1 0 0 0 .52 3.155l-.61.61a3.87 3.87 0 0 0 0 5.506 3.87 3.87 0 0 0 5.504 0l4.584-4.584a3.87 3.87 0 0 0 0-5.505 1.264 1.264 0 0 1 0-1.843"/></svg>