<svg xmlns="http://www.w3.org/2000/svg" width="24" height="24" fill="hsl(44, 100%, 60%)" viewBox="0 -960 960 960"><path d="M200-200v-560 179-19zm80-240h221q2-22 10-42t20-38H280zm0 160h157q17-20 39-32.5t46-20.5q-4-6-7-13t-5-14H280zm0-320h400v-80H280zm-80 480q-33 0-56.5-23.5T120-200v-560q0-33 23.5-56.5T200-840h560q33 0 56.5 23.5T840-760v258q-14-26-34-46t-46-33v-179H200v560h202q-1 6-1.5 12t-.5 12v56zm409-229q-29-29-29-71t29-71 71-29 71 29 29 71-29 71-71 29-71-29M480-120v-56q0-24 12.5-44.5T528-250q36-15 74.5-22.5T680-280t77.5 7.5T832-250q23 9 35.5 29.5T880-176v56z"/></svg>