<svg xmlns="http://www.w3.org/2000/svg" width="100" height="100" viewBox="0 0 100 100"><!--! Font Awesome Free 6.7.2 by @fontawesome - https://fontawesome.com License - https://fontawesome.com/license/free (Icons: CC BY 4.0, Fonts: SIL OFL 1.1, Code: MIT License) Copyright 2024 Fonticons, Inc.--><path fill="currentColor" d="M61.376 10.184c-2.656-.766-5.422.781-6.188 3.438L35.186 83.627c-.766 2.656.781 5.422 3.438 6.188 2.656.765 5.422-.782 6.188-3.438l20.002-70.005c.765-2.656-.782-5.422-3.438-6.188m12.595 18.767a5.01 5.01 0 0 0 0 7.079L87.925 50l-13.97 13.97a5.01 5.01 0 0 0 0 7.078 5.01 5.01 0 0 0 7.079 0l17.5-17.5a5.01 5.01 0 0 0 0-7.08l-17.5-17.5a5.01 5.01 0 0 0-7.079 0zm-47.926 0a5.01 5.01 0 0 0-7.079 0l-17.5 17.501a5.01 5.01 0 0 0 0 7.079l17.5 17.5a5.01 5.01 0 0 0 7.079 0 5.01 5.01 0 0 0 0-7.078l-13.97-13.954 13.97-13.97a5.01 5.01 0 0 0 0-7.079z"/></svg>